<svg width="21" height="22" viewBox="0 0 21 22" fill="none" xmlns="http://www.w3.org/2000/svg">
<path d="M18.2395 12.0209C18.2812 11.6875 18.3125 11.3542 18.3125 11C18.3125 10.6459 18.2812 10.3125 18.2395 9.97921L20.4375 8.26046C20.6354 8.10421 20.6875 7.82296 20.5625 7.59379L18.4791 3.98962C18.3541 3.76046 18.0729 3.67712 17.8437 3.76046L15.25 4.80212C14.7083 4.38546 14.125 4.04171 13.4895 3.78129L13.0937 1.02087C13.0625 0.770874 12.8437 0.583374 12.5833 0.583374H8.41662C8.15621 0.583374 7.93746 0.770874 7.90621 1.02087L7.51037 3.78129C6.87496 4.04171 6.29162 4.39587 5.74996 4.80212L3.1562 3.76046C2.91662 3.66671 2.64579 3.76046 2.52079 3.98962L0.437455 7.59379C0.302038 7.82296 0.364538 8.10421 0.562455 8.26046L2.76037 9.97921C2.71871 10.3125 2.68746 10.6563 2.68746 11C2.68746 11.3438 2.71871 11.6875 2.76037 12.0209L0.562455 13.7396C0.364538 13.8959 0.312455 14.1771 0.437455 14.4063L2.52079 18.0105C2.64579 18.2396 2.92704 18.323 3.1562 18.2396L5.74996 17.198C6.29162 17.6146 6.87496 17.9584 7.51037 18.2188L7.90621 20.9792C7.93746 21.2292 8.15621 21.4167 8.41662 21.4167H12.5833C12.8437 21.4167 13.0625 21.2292 13.0937 20.9792L13.4895 18.2188C14.125 17.9584 14.7083 17.6042 15.25 17.198L17.8437 18.2396C18.0833 18.3334 18.3541 18.2396 18.4791 18.0105L20.5625 14.4063C20.6875 14.1771 20.6354 13.8959 20.4375 13.7396L18.2395 12.0209ZM10.5 14.6459C8.48954 14.6459 6.85412 13.0105 6.85412 11C6.85412 8.98962 8.48954 7.35421 10.5 7.35421C12.5104 7.35421 14.1458 8.98962 14.1458 11C14.1458 13.0105 12.5104 14.6459 10.5 14.6459Z" fill="#303639"/>
</svg>
