<svg width="21" height="22" viewBox="0 0 21 22" fill="none" xmlns="http://www.w3.org/2000/svg">
<path d="M18.2395 12.0208C18.2812 11.6875 18.3125 11.3541 18.3125 11C18.3125 10.6458 18.2812 10.3125 18.2395 9.97915L20.4375 8.2604C20.6354 8.10415 20.6875 7.8229 20.5625 7.59373L18.4791 3.98956C18.3541 3.7604 18.0729 3.67706 17.8437 3.7604L15.25 4.80206C14.7083 4.3854 14.125 4.04165 13.4895 3.78123L13.0937 1.02081C13.0625 0.770813 12.8437 0.583313 12.5833 0.583313H8.41662C8.15621 0.583313 7.93746 0.770813 7.90621 1.02081L7.51037 3.78123C6.87496 4.04165 6.29162 4.39581 5.74996 4.80206L3.1562 3.7604C2.91662 3.66665 2.64579 3.7604 2.52079 3.98956L0.437455 7.59373C0.302038 7.8229 0.364538 8.10415 0.562455 8.2604L2.76037 9.97915C2.71871 10.3125 2.68746 10.6562 2.68746 11C2.68746 11.3437 2.71871 11.6875 2.76037 12.0208L0.562455 13.7396C0.364538 13.8958 0.312455 14.1771 0.437455 14.4062L2.52079 18.0104C2.64579 18.2396 2.92704 18.3229 3.1562 18.2396L5.74996 17.1979C6.29162 17.6146 6.87496 17.9583 7.51037 18.2187L7.90621 20.9791C7.93746 21.2291 8.15621 21.4166 8.41662 21.4166H12.5833C12.8437 21.4166 13.0625 21.2291 13.0937 20.9791L13.4895 18.2187C14.125 17.9583 14.7083 17.6041 15.25 17.1979L17.8437 18.2396C18.0833 18.3333 18.3541 18.2396 18.4791 18.0104L20.5625 14.4062C20.6875 14.1771 20.6354 13.8958 20.4375 13.7396L18.2395 12.0208ZM10.5 14.6458C8.48954 14.6458 6.85412 13.0104 6.85412 11C6.85412 8.98956 8.48954 7.35415 10.5 7.35415C12.5104 7.35415 14.1458 8.98956 14.1458 11C14.1458 13.0104 12.5104 14.6458 10.5 14.6458Z" fill="#365CBD"/>
</svg>
