<svg width="21" height="22" viewBox="0 0 21 22" fill="none" xmlns="http://www.w3.org/2000/svg">
<g clip-path="url(#clip0_11_274)">
<path d="M4.375 11.875H14.1487L9.87875 16.145C9.5375 16.4863 9.5375 17.0463 9.87875 17.3875C10.22 17.7288 10.7712 17.7288 11.1125 17.3875L16.8787 11.6213C17.22 11.28 17.22 10.7288 16.8787 10.3875L11.1212 4.6125C10.78 4.27125 10.2287 4.27125 9.8875 4.6125C9.54625 4.95375 9.54625 5.50501 9.8875 5.84626L14.1487 10.125H4.375C3.89375 10.125 3.5 10.5188 3.5 11C3.5 11.4813 3.89375 11.875 4.375 11.875Z" fill="white"/>
</g>
<defs>
<clipPath id="clip0_11_274">
<rect width="21" height="21" fill="white" transform="translate(0 0.5)"/>
</clipPath>
</defs>
</svg>
