<svg width="13" height="17" viewBox="0 0 13 17" fill="none" xmlns="http://www.w3.org/2000/svg">
<path d="M0.896608 15.1208C0.896608 16.1289 1.6851 16.9536 2.64881 16.9536H9.65761C10.6213 16.9536 11.4098 16.1289 11.4098 15.1208V5.95704C11.4098 4.94903 10.6213 4.12428 9.65761 4.12428H2.64881C1.6851 4.12428 0.896608 4.94903 0.896608 5.95704V15.1208ZM11.4098 1.37514H9.21956L8.59753 0.724513C8.43983 0.559565 8.21204 0.458763 7.98426 0.458763H4.32216C4.09437 0.458763 3.86659 0.559565 3.70889 0.724513L3.08686 1.37514H0.896608C0.414753 1.37514 0.0205078 1.78751 0.0205078 2.29152C0.0205078 2.79553 0.414753 3.2079 0.896608 3.2079H11.4098C11.8917 3.2079 12.2859 2.79553 12.2859 2.29152C12.2859 1.78751 11.8917 1.37514 11.4098 1.37514Z" fill="#C22400"/>
</svg>
