<svg width="14" height="12" viewBox="0 0 14 12" fill="none" xmlns="http://www.w3.org/2000/svg">
<path d="M7.24473 0.410582C7.57016 0.0851447 8.0978 0.0851447 8.42324 0.410582L13.4232 5.41058C13.5795 5.56686 13.6673 5.77882 13.6673 5.99984C13.6673 6.22085 13.5795 6.43281 13.4232 6.58909L8.42324 11.5891C8.0978 11.9145 7.57016 11.9145 7.24473 11.5891C6.91929 11.2637 6.91929 10.736 7.24473 10.4106L10.8221 6.83317L1.16732 6.83317C0.70708 6.83317 0.333984 6.46008 0.333984 5.99984C0.333984 5.5396 0.70708 5.1665 1.16732 5.1665L10.8221 5.1665L7.24473 1.58909C6.91929 1.26366 6.91929 0.736018 7.24473 0.410582Z" fill="#420F10"/>
</svg>
